<svg fill="#000000" xmlns="http://www.w3.org/2000/svg"  viewBox="0 0 100 100" width="100px" height="100px"><path d="M 31.429688 19 C 24.598243 19 19 24.598243 19 31.429688 L 19 68.570312 C 19 75.401758 24.598243 81 31.429688 81 L 68.570312 81 C 75.401758 81 81 75.402797 81 68.572266 L 81 31.429688 C 81 24.598243 75.402797 19 68.572266 19 L 31.429688 19 z M 31.429688 21 L 68.572266 21 C 74.311734 21 79 25.689132 79 31.429688 L 79 38.720703 C 78.674467 38.300853 78.33498 37.892985 77.970703 37.507812 C 77.869151 36.110943 77.665887 34.372801 77.197266 32.902344 C 76.9549 32.141839 76.648837 31.453103 76.222656 30.919922 C 75.796476 30.38674 75.201671 30 74.5 30 C 73.937789 30 73.454098 30.263984 73.105469 30.619141 C 72.756839 30.974297 72.507672 31.4162 72.287109 31.869141 C 72.11939 32.213565 71.99462 32.412767 71.845703 32.744141 C 71.805513 31.806488 71.828883 31.023901 71.587891 29.845703 C 71.395128 28.903309 71.111994 27.990552 70.636719 27.267578 C 70.161444 26.544605 69.427327 26 68.5 26 C 67.737188 26 67.054326 26.390563 66.427734 26.955078 C 65.801143 27.519594 65.201784 28.27751 64.568359 29.148438 C 63.30151 30.89029 61.904802 33.088779 60.130859 35.046875 A 0.50005 0.50005 0 1 0 60.873047 35.716797 C 62.721104 33.676893 64.140802 31.435974 65.376953 29.736328 C 65.995029 28.886505 66.569123 28.173438 67.097656 27.697266 C 67.62619 27.221094 68.081812 27 68.5 27 C 69.062673 27 69.441994 27.27063 69.800781 27.816406 C 70.159569 28.362183 70.430887 29.172316 70.609375 30.044922 C 70.96635 31.790134 70.974049 33.749443 71 34.517578 A 0.50005 0.50005 0 0 0 71.875 34.830078 C 72.48387 34.139607 72.788625 33.125759 73.1875 32.306641 C 73.386938 31.897081 73.601443 31.543282 73.820312 31.320312 C 74.039183 31.097345 74.227211 31 74.5 31 C 74.853329 31 75.136962 31.164041 75.441406 31.544922 C 75.745851 31.925803 76.024007 32.514333 76.244141 33.205078 C 76.684409 34.586568 76.908568 36.363085 77.001953 37.734375 A 0.50005 0.50005 0 0 0 77.140625 38.048828 C 77.846462 38.776054 78.466408 39.586576 79 40.458984 L 79 60.535156 C 76.624164 64.402171 72.361875 67 67.5 67 C 63.30132 67 58.994128 65.054062 56.240234 62.044922 L 56.576172 61.994141 A 0.50005 0.50005 0 0 0 57 61.5 C 57 57.362488 53.662748 54 50 54 C 46.337252 54 43 57.362488 43 61.5 A 0.50005 0.50005 0 0 0 43.423828 61.994141 L 43.759766 62.044922 C 41.005872 65.054062 36.69868 67 32.5 67 C 31.534298 67 30.592782 66.896918 29.683594 66.703125 A 0.50029199 0.50029199 0 1 0 29.474609 67.681641 C 30.451422 67.889848 31.463702 68 32.5 68 C 37.228343 68 41.99187 65.745157 44.923828 62.224609 L 45.025391 62.240234 C 45.019833 62.327531 45 62.411602 45 62.5 C 45 65.013059 47.274759 67 50 67 C 52.725241 67 55 65.013059 55 62.5 C 55 62.411891 54.98018 62.327466 54.974609 62.240234 L 55.076172 62.224609 C 58.00813 65.745157 62.771657 68 67.5 68 C 72.176549 68 76.345807 65.76289 79 62.308594 L 79 68.572266 C 79 74.311734 74.310868 79 68.570312 79 L 31.429688 79 C 25.689132 79 21 74.310868 21 68.570312 L 21 62.304688 C 22.141762 63.791677 23.558601 65.058147 25.183594 66.011719 A 0.50005 0.50005 0 1 0 25.689453 65.150391 C 23.770618 64.024389 22.161423 62.429203 21 60.535156 L 21 40.458984 C 21.533592 39.586576 22.153538 38.776054 22.859375 38.048828 A 0.50005 0.50005 0 0 0 22.998047 37.734375 C 23.091437 36.363085 23.315591 34.586568 23.755859 33.205078 C 23.975993 32.514333 24.254149 31.925803 24.558594 31.544922 C 24.863004 31.164041 25.146671 31 25.5 31 C 25.772789 31 25.960816 31.09734 26.179688 31.320312 C 26.398557 31.543281 26.613062 31.897081 26.8125 32.306641 C 27.211375 33.125759 27.51613 34.139607 28.125 34.830078 A 0.50005 0.50005 0 0 0 29 34.517578 C 29.02595 33.749443 29.03365 31.790134 29.390625 30.044922 C 29.569113 29.172316 29.840431 28.362183 30.199219 27.816406 C 30.558006 27.27063 30.937327 27 31.5 27 C 31.854167 27 32.228612 27.153597 32.662109 27.494141 C 33.095607 27.834684 33.56708 28.353784 34.066406 28.994141 C 35.065058 30.274855 36.180162 32.032411 37.541016 33.804688 C 40.262724 37.349238 44.047101 41 50 41 C 51.693661 41 53.219258 40.704946 54.591797 40.199219 A 0.50005 0.50005 0 1 0 54.246094 39.261719 C 52.980632 39.727992 51.578339 40 50 40 C 44.452899 40 40.987276 36.650762 38.333984 33.195312 C 37.007338 31.467588 35.903692 29.725145 34.855469 28.380859 C 34.331357 27.708716 33.822362 27.134066 33.28125 26.708984 C 32.740138 26.283903 32.145833 26 31.5 26 C 30.572673 26 29.838556 26.544605 29.363281 27.267578 C 28.888006 27.990552 28.604872 28.903309 28.412109 29.845703 C 28.171114 31.023901 28.194491 31.806488 28.154297 32.744141 C 28.00538 32.412767 27.88061 32.213565 27.712891 31.869141 C 27.492328 31.4162 27.243161 30.974297 26.894531 30.619141 C 26.545902 30.263984 26.062211 30 25.5 30 C 24.798329 30 24.203524 30.38674 23.777344 30.919922 C 23.351163 31.453103 23.0451 32.141839 22.802734 32.902344 C 22.334113 34.372801 22.130849 36.110943 22.029297 37.507812 C 21.66502 37.892985 21.325535 38.300853 21 38.720703 L 21 31.429688 C 21 25.689132 25.689132 21 31.429688 21 z M 58.486328 36.816406 A 0.50005 0.50005 0 0 0 58.179688 36.9375 C 57.581823 37.436366 56.94587 37.895103 56.267578 38.296875 A 0.50005 0.50005 0 1 0 56.777344 39.15625 C 57.507052 38.724022 58.188129 38.234212 58.822266 37.705078 A 0.50005 0.50005 0 0 0 58.486328 36.816406 z M 33.5 38 A 0.50005 0.50005 0 1 0 33.5 39 C 38.200833 39 42 42.799167 42 47.5 L 42 53.5 C 42 58.200833 38.200833 62 33.5 62 C 28.799167 62 25 58.200833 25 53.5 L 25 47.5 C 25 45.846102 25.470127 44.306189 26.285156 43.001953 A 0.50005 0.50005 0 1 0 25.4375 42.472656 C 24.526529 43.93042 24 45.655898 24 47.5 L 24 53.5 C 24 58.741167 28.258833 63 33.5 63 C 38.741167 63 43 58.741167 43 53.5 L 43 47.5 C 43 42.258833 38.741167 38 33.5 38 z M 67.5 38 C 62.258833 38 58 42.258833 58 47.5 L 58 53.5 C 58 58.741167 62.258833 63 67.5 63 C 72.741167 63 77 58.741167 77 53.5 L 77 47.5 C 77 46.190367 76.734274 44.939781 76.253906 43.802734 C 74.810544 40.392304 71.4307 38 67.5 38 z M 30.515625 38.509766 A 0.50005 0.50005 0 0 0 30.333984 38.541016 C 29.143821 38.961322 28.064426 39.611352 27.146484 40.4375 A 0.50005 0.50005 0 1 0 27.814453 41.179688 C 28.636511 40.439835 29.602179 39.860069 30.666016 39.484375 A 0.50005 0.50005 0 0 0 30.515625 38.509766 z M 67.5 39 C 71.0253 39 74.041393 41.141837 75.332031 44.191406 C 75.761663 45.20836 76 46.325633 76 47.5 L 76 53.5 C 76 58.200833 72.200833 62 67.5 62 C 62.799167 62 59 58.200833 59 53.5 L 59 47.5 C 59 42.799167 62.799167 39 67.5 39 z M 35 43 C 33.969642 43 33.011118 43.311599 32.212891 43.84375 A 0.50005 0.50005 0 0 0 32.162109 44.636719 C 32.67368 45.082282 33 45.756067 33 46.5 C 33 47.890924 31.890924 49 30.5 49 A 0.50005 0.50005 0 0 0 30 49.5 L 30 53 C 30 55.759076 32.240924 58 35 58 C 37.759076 58 40 55.759076 40 53 L 40 48 C 40 46.627533 39.445965 45.370456 38.535156 44.46875 L 38.533203 44.466797 C 37.63141 43.554886 36.373438 43 35 43 z M 66 43 C 64.969642 43 64.011118 43.311599 63.212891 43.84375 A 0.50005 0.50005 0 0 0 63.162109 44.636719 C 63.67368 45.082282 64 45.756067 64 46.5 C 64 47.890924 62.890924 49 61.5 49 A 0.50005 0.50005 0 0 0 61 49.5 L 61 53 C 61 55.759076 63.240924 58 66 58 C 68.759076 58 71 55.759076 71 53 L 71 48 C 71 46.627533 70.445965 45.370456 69.535156 44.46875 L 69.533203 44.466797 C 68.63141 43.554886 67.373438 43 66 43 z M 50 55 C 52.914364 55 55.687356 57.695086 55.916016 61.083984 L 55.314453 61.175781 A 0.50005 0.50005 0 0 0 55.060547 61.214844 L 50 61.994141 L 44.875 61.205078 A 0.50005 0.50005 0 0 0 44.730469 61.183594 L 44.083984 61.083984 C 44.312644 57.695086 47.085636 55 50 55 z M 46.009766 62.392578 L 49.923828 62.994141 A 0.50005 0.50005 0 0 0 50.076172 62.994141 L 53.990234 62.392578 C 53.991535 62.42893 54 62.463403 54 62.5 C 54 64.404941 52.244759 66 50 66 C 47.755241 66 46 64.404941 46 62.5 C 46 62.463074 46.008451 62.429087 46.009766 62.392578 z"/></svg>